<?xml version="1.0" encoding="UTF-8"?>
<svg xmlns="http://www.w3.org/2000/svg" xmlns:xlink="http://www.w3.org/1999/xlink" viewBox="0 0 512 512" width="512px" height="512px">
<g id="surface91949522">
<path style=" stroke:none;fill-rule:nonzero;fill:rgb(98.431373%,98.431373%,99.607843%);fill-opacity:1;" d="M 480 112 L 480 241.671875 C 474.773438 240.566406 469.417969 240 464 240 C 458.578125 240 453.226562 240.566406 448 241.667969 L 448 144 L 64 144 L 64 368 L 303.539062 368 L 271.539062 400 L 32 400 L 32 112 Z M 144 176 C 170.464844 176 192 197.535156 192 224 L 192 288 C 192 314.464844 170.464844 336 144 336 L 96 336 L 96 176 Z M 288 176 L 288 208 L 256 208 L 256 240 L 288 240 L 288 272 L 256 272 L 256 304 L 288 304 L 288 336 L 256 336 C 238.351562 336 224 321.648438 224 304 L 224 208 C 224 190.351562 238.351562 176 256 176 Z M 347.90625 176 L 368 263.03125 L 388.09375 176 L 420.9375 176 L 398.535156 273.015625 L 349.019531 322.527344 C 348.777344 321.835938 348.574219 321.128906 348.40625 320.40625 L 315.0625 176 Z M 128 304 L 144 304 C 152.832031 304 160 296.832031 160 288 L 160 224 C 160 215.167969 152.832031 208 144 208 L 128 208 Z M 128 304 "/>
<path style=" stroke:none;fill-rule:nonzero;fill:rgb(100%,100%,100%);fill-opacity:1;" d="M 272 512 L 289.601562 427.199219 L 430.398438 286.398438 C 440 276.800781 452 272 464 272 C 476 272 488 276.800781 497.601562 286.398438 C 507.199219 296 512 308 512 320 C 512 332 507.199219 344 497.601562 353.601562 L 356.800781 494.398438 Z M 318.398438 443.199219 L 313.601562 470.398438 L 340.800781 465.601562 L 475.199219 331.199219 C 481.601562 324.800781 481.601562 315.199219 475.199219 308.800781 C 468.800781 302.398438 459.199219 302.398438 452.800781 308.800781 Z M 318.398438 443.199219 "/>
</g>
</svg>
